<svg width="452" height="354" viewBox="0 0 452 354" fill="none" xmlns="http://www.w3.org/2000/svg">
<g clip-path="url(#clip0)">
<path opacity="0.1" d="M142.712 12.4928C154.987 1.53265 174.261 -0.686324 191.831 0.155792C246.973 2.90109 296.748 29.5456 339.806 59.6891C355.395 70.5987 370.74 82.3589 380.856 97.3864C401.468 127.976 395.343 170.351 366.706 195.552C356.959 204.125 345.148 210.71 333.021 216.525C311.458 226.883 288.192 235.199 263.719 237.578C246.271 239.262 228.604 237.893 211.252 235.54C162.781 228.959 115.202 214.407 75.3207 189.514C57.8303 178.596 41.3368 165.021 34.1353 147.358C26.9339 129.694 31.54 107.311 49.4006 96.8559C56.7871 92.5316 65.6206 90.5779 74.2649 88.7421C86.9936 86.0431 99.9242 83.382 111.408 77.8957C123.274 72.2282 137.32 61.2681 134.964 48.7206C132.449 35.2594 130.429 23.4403 142.712 12.4928Z" fill="#7A74DE"/>
<path opacity="0.1" d="M193.888 349.722C224.819 349.722 249.893 341.865 249.893 332.172C249.893 322.48 224.819 314.623 193.888 314.623C162.957 314.623 137.883 322.48 137.883 332.172C137.883 341.865 162.957 349.722 193.888 349.722Z" fill="#7A74DE"/>
<path d="M308.732 151.682L310.764 259.776L315.084 260.285L313.456 151.252L308.732 151.682Z" fill="#F5C5CC"/>
<path d="M298.288 149.648L300.32 257.742L304.64 258.251L303.012 149.219L298.288 149.648Z" fill="#F5C5CC"/>
<path d="M300.841 143.998L301.052 261.894L305.468 261.473L303.786 141.682L300.841 143.998Z" fill="#CC929B"/>
<path d="M179.01 124.313L180.873 222.297L185.193 222.752L183.738 123.917L179.01 124.313Z" fill="#F5C5CC"/>
<path d="M181.504 122.481L183.641 224.462L185.193 222.752L183.738 123.917L181.504 122.481Z" fill="#CC929B"/>
<path d="M188.201 126.793L190.064 224.773L194.384 225.228L192.929 126.397L188.201 126.793Z" fill="#F5C5CC"/>
<path d="M190.695 124.957L192.836 226.937L194.384 225.228L192.929 126.397L190.695 124.957Z" fill="#CC929B"/>
<path d="M197.186 129.479L199.049 227.464L203.369 227.919L201.914 129.088L197.186 129.479Z" fill="#F5C5CC"/>
<path d="M199.68 127.652L201.821 229.628L203.369 227.918L201.914 129.088L199.68 127.652Z" fill="#CC929B"/>
<path d="M205.927 130.027L207.845 231.451L212.165 231.923L210.651 129.623L205.927 130.027Z" fill="#F5C5CC"/>
<path d="M208.417 128.132L210.617 233.691L212.165 231.923L210.651 129.623L208.417 128.132Z" fill="#CC929B"/>
<path d="M215.404 130.818L217.326 232.239L221.646 232.71L220.132 130.41L215.404 130.818Z" fill="#F5C5CC"/>
<path d="M217.898 128.924L220.098 234.479L221.646 232.71L220.132 130.41L217.898 128.924Z" fill="#CC929B"/>
<path d="M224.717 134.132L226.635 235.556L230.955 236.028L229.445 133.728L224.717 134.132Z" fill="#F5C5CC"/>
<path d="M227.207 132.237L229.407 237.797L230.955 236.028L229.445 133.728L227.207 132.237Z" fill="#CC929B"/>
<path d="M235.376 136.322L237.345 240.575L241.665 241.06L240.104 135.905L235.376 136.322Z" fill="#F5C5CC"/>
<path d="M237.866 134.376L240.117 242.879L241.665 241.06L240.104 135.905L237.866 134.376Z" fill="#CC929B"/>
<path d="M244.651 137.429L246.616 241.683L250.94 242.167L249.375 137.012L244.651 137.429Z" fill="#F5C5CC"/>
<path d="M247.142 135.48L249.392 243.986L250.94 242.167L249.375 137.012L247.142 135.48Z" fill="#CC929B"/>
<path d="M254.478 140.208L256.446 244.462L260.766 244.95L259.206 139.795L254.478 140.208Z" fill="#F5C5CC"/>
<path d="M256.972 138.263L259.218 246.769L260.766 244.95L259.206 139.795L256.972 138.263Z" fill="#CC929B"/>
<path d="M170.593 124.14L170.382 117.934L172.57 116.738L329.445 148.945L329.735 156.823L170.593 124.14Z" fill="#F5C5CC"/>
<path d="M172.57 116.738L330.021 148.92L329.861 151.871L170.706 117.753" fill="#CC929B"/>
<path d="M179.064 278.601L174.648 280.21H170.441L170.231 114.086L172.544 110.869L174.778 110.212L177.592 109.787L179.064 278.601Z" fill="#F5C5CC"/>
<path d="M179.064 278.601L174.648 280.21L174.374 114.414L174.778 110.212L177.592 109.787L179.064 278.601Z" fill="#CC929B"/>
<path d="M265.154 143.294L267.122 247.544L271.442 248.032L269.882 142.877L265.154 143.294Z" fill="#F5C5CC"/>
<path d="M267.644 141.345L269.894 249.851L271.442 248.032L269.882 142.877L267.644 141.345Z" fill="#CC929B"/>
<path d="M275.909 144.941L277.916 251.422L282.236 251.919L280.633 144.52L275.909 144.941Z" fill="#F5C5CC"/>
<path d="M286.985 146.89L289.017 254.984L293.337 255.494L291.713 146.461L286.985 146.89Z" fill="#F5C5CC"/>
<path d="M289.475 144.873L291.793 257.38L293.337 255.494L291.713 146.461L289.475 144.873Z" fill="#CC929B"/>
<path d="M117.861 246.736L113.444 247.157L113.238 130.865L113.233 129.26L116.178 126.945L116.224 130.17L117.861 246.736Z" fill="#F5C5CC"/>
<path d="M133.424 240.209L129.008 240.63L128.802 126.237L128.797 122.734L131.742 120.418L131.809 125.117L133.424 240.209Z" fill="#F5C5CC"/>
<path d="M159.084 229.683L154.667 230.104L154.465 117.155L154.457 112.208L157.401 109.892L157.494 116.452L159.084 229.683Z" fill="#F5C5CC"/>
<path d="M170.231 225.472L165.814 225.893L165.616 115.702L165.604 107.997L168.548 105.681L168.7 116.385L170.231 225.472Z" fill="#F5C5CC"/>
<path d="M125.642 245.472L121.226 245.893L121.015 128.839V127.997L123.96 125.681L123.989 127.9L125.642 245.472Z" fill="#F5C5CC"/>
<path d="M148.357 234.946L143.941 235.367L143.734 120.519L143.73 117.471L146.675 115.155L146.734 119.475L148.357 234.946Z" fill="#F5C5CC"/>
<path d="M140.996 237.051L136.579 237.472L136.377 123.319L136.369 119.576L139.313 117.26L139.381 122.136L140.996 237.051Z" fill="#F5C5CC"/>
<path d="M113.149 227.308L112.098 229.519C112.098 229.519 109.364 233.624 109.679 239.94C109.994 246.256 105.275 262.993 105.275 262.993C105.275 262.993 109.586 264.993 112.846 264.782C116.106 264.572 123.152 268.045 123.152 268.045L137.757 272.58L167.307 279.528C167.307 279.528 184.659 289.212 189.391 289.212C194.124 289.212 212.947 295.633 212.947 295.633C212.947 295.633 238.396 301.212 240.394 303.317C242.393 305.423 250.818 308.256 251.659 308.37C252.501 308.484 265.33 309.738 265.33 309.738C265.33 309.738 280.263 313.212 282.366 309.528C283.592 307.456 284.413 305.17 284.785 302.791C284.785 302.791 291.41 304.265 293.198 302.054C294.986 299.844 295.091 295.107 297.194 295.317C299.297 295.528 307.921 298.159 308.867 297.212C309.814 296.265 314.861 285.107 318.437 286.791C322.012 288.475 328.217 291.107 328.217 291.107L324.641 254.685L323.064 244.685C323.064 244.685 265.751 268.054 263.753 268.054C261.755 268.054 113.149 227.308 113.149 227.308Z" fill="#7A74DE"/>
<path d="M322.748 195.413L322.433 246.782L262.899 269.633L112.098 229.527C112.098 229.527 101.897 215.106 111.362 201.632C111.362 201.632 99.1629 184.79 114.306 173.842L114.68 173.754L171.934 159.947L197.396 164.604L309.898 185.202C309.898 185.202 320.948 189.308 322.748 195.413Z" fill="#7A74DE"/>
<path opacity="0.1" d="M195.385 169.518C192.546 170.992 171.935 176.36 167.833 179.623C163.732 182.886 135.338 185.421 135.338 185.421L132.184 186.053C132.184 186.053 132.394 183.947 119.88 177.842C117.88 176.858 116.109 175.465 114.68 173.754L171.935 159.947L197.396 164.604C197.43 166.621 197.085 168.634 195.385 169.518Z" fill="black"/>
<path d="M108.838 149.21C108.838 149.21 107.786 169.631 120.3 175.737C132.814 181.842 132.617 183.939 132.617 183.939L135.772 183.307C135.772 183.307 124.835 171.097 125.571 168.991C126.307 166.886 115.791 156.254 114.306 155.833C112.821 155.412 108.838 149.21 108.838 149.21Z" fill="#7A74DE"/>
<path opacity="0.1" d="M109.061 149.518C109.061 149.518 108.009 169.939 120.523 176.044C133.037 182.15 132.827 184.255 132.827 184.255L135.982 183.623C135.982 183.623 125.045 171.413 125.781 169.307C126.517 167.202 115.989 156.57 114.529 156.149C113.069 155.728 109.061 149.518 109.061 149.518Z" fill="black"/>
<path opacity="0.1" d="M112.005 158.149C112.005 158.149 122.101 173.413 123.888 173.939C125.676 174.465 114.411 158.36 112.005 158.149Z" fill="black"/>
<path d="M107.378 146.36C107.378 146.36 113.898 141.096 114.739 140.044C115.581 138.991 124.835 138.57 125.15 138.57C125.466 138.57 132.512 134.254 140.399 132.886C148.286 131.517 151.441 130.886 151.441 130.886C151.441 130.886 163.008 126.044 163.639 124.991C164.27 123.938 169.634 122.78 176.259 127.938C182.884 133.096 197.501 156.254 197.606 158.781C197.712 161.307 198.658 165.939 195.819 167.413C192.979 168.886 172.368 174.255 168.266 177.518C164.165 180.781 135.759 183.316 135.759 183.316L125.045 171.623L119.366 162.465L109.902 152.465L107.378 146.36Z" fill="#7A74DE"/>
<path opacity="0.1" d="M124.961 237.274C124.961 237.274 121.036 238.117 123.278 240.361C125.52 242.605 124.961 237.274 124.961 237.274Z" fill="black"/>
<path opacity="0.1" d="M138.704 241.767C138.704 241.767 134.497 246.82 135.338 248.222C136.18 249.624 138.704 241.767 138.704 241.767Z" fill="black"/>
<path opacity="0.1" d="M163.383 248.222C163.383 248.222 159.176 253.275 160.018 254.677C160.859 256.079 163.383 248.222 163.383 248.222Z" fill="black"/>
<path opacity="0.1" d="M193.387 256.643C193.387 256.643 189.181 261.696 190.022 263.098C190.863 264.5 193.387 256.643 193.387 256.643Z" fill="black"/>
<path opacity="0.1" d="M233.769 266.748C233.769 266.748 229.563 271.801 230.404 273.203C231.245 274.605 233.769 266.748 233.769 266.748Z" fill="black"/>
<path opacity="0.1" d="M150.763 243.169C150.763 243.169 146.557 248.222 147.398 249.624C148.24 251.026 150.763 243.169 150.763 243.169Z" fill="black"/>
<path opacity="0.1" d="M209.372 260.854C209.372 260.854 205.165 265.906 206.007 267.308C206.848 268.711 209.372 260.854 209.372 260.854Z" fill="black"/>
<path opacity="0.1" d="M221.709 264.782C221.709 264.782 217.503 269.835 218.344 271.241C219.186 272.647 221.709 264.782 221.709 264.782Z" fill="black"/>
<path opacity="0.1" d="M174.32 251.59C174.32 251.59 170.113 256.643 170.954 258.045C171.796 259.447 174.32 251.59 174.32 251.59Z" fill="black"/>
<path opacity="0.1" d="M280.322 282.189L284.773 302.783C284.773 302.783 284.806 288.361 280.322 282.189Z" fill="black"/>
<path opacity="0.1" d="M294.06 285.275L297.182 295.317C297.182 295.317 296.866 291.452 294.06 285.275Z" fill="black"/>
<path opacity="0.1" d="M308.867 297.204C308.867 297.204 302.208 272.925 300.803 271.241C299.398 269.557 304.858 295.662 308.867 297.204Z" fill="black"/>
<path opacity="0.1" d="M316.775 285.835C316.775 285.835 308.926 272.083 312.009 269.557C315.093 267.031 316.775 285.835 316.775 285.835Z" fill="black"/>
<path opacity="0.1" d="M111.362 201.623L263.774 235.872L322.387 218.748L263.214 234.188C263.214 234.188 115.989 200.221 111.362 201.623Z" fill="black"/>
<path d="M115.968 164.419L116.178 262.42L120.49 262.946L120.7 164.103L115.968 164.419Z" fill="#F5C5CC"/>
<path d="M118.492 162.629L118.912 264.631L120.49 262.946L120.7 164.103L118.492 162.629Z" fill="#CC929B"/>
<path d="M125.117 167.05L125.327 265.052L129.639 265.578L129.849 166.735L125.117 167.05Z" fill="#F5C5CC"/>
<path d="M127.641 165.261L128.061 267.262L129.639 265.578L129.849 166.735L127.641 165.261Z" fill="#CC929B"/>
<path d="M134.055 169.893L134.266 267.894L138.577 268.42L138.788 169.577L134.055 169.893Z" fill="#F5C5CC"/>
<path d="M136.579 168.103L137 270.104L138.577 268.42L138.788 169.577L136.579 168.103Z" fill="#CC929B"/>
<path d="M142.784 170.587L142.994 272.029L147.306 272.572L147.516 170.259L142.784 170.587Z" fill="#F5C5CC"/>
<path d="M145.308 168.735L145.728 274.315L147.306 272.572L147.516 170.259L145.308 168.735Z" fill="#CC929B"/>
<path d="M152.248 171.535L152.459 272.976L156.77 273.519L156.981 171.206L152.248 171.535Z" fill="#F5C5CC"/>
<path d="M154.772 169.682L155.193 275.262L156.77 273.519L156.981 171.206L154.772 169.682Z" fill="#CC929B"/>
<path d="M161.502 175.008L161.713 276.45L166.024 276.993L166.235 174.68L161.502 175.008Z" fill="#F5C5CC"/>
<path d="M164.026 173.156L164.447 278.736L166.024 276.993L166.235 174.68L164.026 173.156Z" fill="#CC929B"/>
<path d="M174.648 175.472L175.068 283.999L176.646 282.205L176.856 177.038L174.648 175.472Z" fill="#CC929B"/>
<path d="M181.378 178.638L181.588 282.909L185.9 283.469L186.11 178.301L181.378 178.638Z" fill="#F5C5CC"/>
<path d="M183.902 176.735L184.322 285.262L185.9 283.469L186.11 178.301L183.902 176.735Z" fill="#CC929B"/>
<path d="M191.158 181.585L191.368 285.856L195.68 286.416L195.89 181.248L191.158 181.585Z" fill="#F5C5CC"/>
<path d="M193.682 179.682L194.102 288.21L195.68 286.416L195.89 181.248L193.682 179.682Z" fill="#CC929B"/>
<path d="M201.779 184.849L201.99 289.119L206.301 289.679L206.511 184.512L201.779 184.849Z" fill="#F5C5CC"/>
<path d="M204.303 182.945L204.724 291.473L206.301 289.679L206.511 184.512L204.303 182.945Z" fill="#CC929B"/>
<path d="M212.506 186.68L212.716 293.174L217.028 293.747L217.238 186.335L212.506 186.68Z" fill="#F5C5CC"/>
<path d="M215.03 184.735L215.45 295.578L217.028 293.747L217.238 186.335L215.03 184.735Z" fill="#CC929B"/>
<path d="M223.548 188.815L223.758 296.93L228.07 297.511L228.28 188.465L223.548 188.815Z" fill="#CC929B"/>
<path d="M234.8 191.762L235.01 299.877L239.322 300.458L239.532 191.413L234.8 191.762Z" fill="#F5C5CC"/>
<path d="M237.324 189.788L237.744 302.315L239.322 300.458L239.532 191.413L237.324 189.788Z" fill="#CC929B"/>
<path d="M245.211 193.973L245.421 302.088L249.733 302.669L249.943 193.623L245.211 193.973Z" fill="#CC929B"/>
<path d="M110.289 281.473L105.872 283.157H101.666L101.455 128.629L103.769 125.26L106.003 124.574L109.237 123.576L110.289 281.473Z" fill="#F5C5CC"/>
<path d="M110.289 281.473L105.872 283.157L105.599 128.97L106.003 124.574L109.237 123.576L110.289 281.473Z" fill="#CC929B"/>
<path d="M106.293 287.999C109.081 287.999 111.341 285.737 111.341 282.947C111.341 280.156 109.081 277.894 106.293 277.894C103.505 277.894 101.245 280.156 101.245 282.947C101.245 285.737 103.505 287.999 106.293 287.999Z" fill="#40414D"/>
<path d="M336.175 305.128L331.759 306.736H327.552L327.342 136.823L329.655 137.395L331.889 136.738L335.124 135.787L336.175 305.128Z" fill="#F5C5CC"/>
<path d="M336.175 305.128L331.759 306.736L331.485 140.941L331.889 136.738L335.124 135.787L336.175 305.128Z" fill="#CC929B"/>
<path d="M274.971 273.262L270.555 273.683L270.353 160.17L270.344 155.787L273.289 153.471L273.373 159.522L274.971 273.262Z" fill="#F5C5CC"/>
<path d="M290.535 266.736L286.119 267.157L285.921 155.741L285.908 149.261L288.853 146.945L288.962 154.633L290.535 266.736Z" fill="#F5C5CC"/>
<path d="M316.195 256.209L311.778 256.63L311.58 145.475L311.568 138.734L314.512 136.418L314.622 144.212L316.195 256.209Z" fill="#F5C5CC"/>
<path d="M322.715 134.524L322.925 252.42L327.342 251.999L325.659 132.208L322.715 134.524Z" fill="#F5C5CC"/>
<path d="M282.753 271.999L278.337 272.42L278.135 158.263L278.126 154.524L281.071 152.208L281.142 157.349L282.753 271.999Z" fill="#F5C5CC"/>
<path d="M298.107 263.578L293.69 263.999L293.492 152.878L293.48 146.103L296.424 143.787L296.534 151.652L298.107 263.578Z" fill="#F5C5CC"/>
<path d="M306.659 260.769L302.242 261.19L302.044 150.069V149.408L302.032 143.294L304.976 140.979L305.077 148.162L305.085 148.844L306.659 260.769Z" fill="#F5C5CC"/>
<path d="M266.138 272.492L327.131 246.525L331.338 247.506L331.477 257.19L267.261 282.033L266.138 272.492Z" fill="#F5C5CC"/>
<path d="M327.131 246.525L266.138 272.492L331.111 247.451" fill="#CC929B"/>
<path d="M108.114 258.736L261.932 305.473L261.65 313.052L107.555 265.473L108.114 258.736Z" fill="#F5C5CC"/>
<path d="M268.662 332L264.245 333.684H260.039L259.828 160.629V159.787L260.156 159.307L262.142 156.419L264.375 155.732L267.61 154.734L267.644 160.629L268.662 332Z" fill="#F5C5CC"/>
<path d="M268.662 332L264.245 333.684L263.972 160.128L264.375 155.732L267.61 154.734L268.662 332Z" fill="#CC929B"/>
<path opacity="0.1" d="M267.61 154.734L267.644 160.629C266.427 160.807 265.201 160.923 263.972 160.975C260.943 161.092 259.828 160.633 259.828 160.633C259.828 160.575 259.946 160.103 260.156 159.316L262.142 156.427L264.375 155.741L267.61 154.734Z" fill="black"/>
<path opacity="0.1" d="M273.289 153.471L273.373 159.522C272.288 159.775 271.281 159.991 270.353 160.17V155.787L273.289 153.471Z" fill="black"/>
<path opacity="0.1" d="M281.071 152.208L281.142 157.349C280.095 157.682 279.09 157.985 278.135 158.263V154.524L281.071 152.208Z" fill="black"/>
<path opacity="0.1" d="M288.853 146.945L288.962 154.633C287.911 155.024 286.897 155.393 285.921 155.741V149.261L288.853 146.945Z" fill="black"/>
<path opacity="0.1" d="M296.424 143.787L296.534 151.652L294.111 152.629L293.493 152.878V146.103L296.424 143.787Z" fill="black"/>
<path opacity="0.1" d="M314.622 144.212L311.58 145.475V138.738L314.525 136.423L314.622 144.212Z" fill="black"/>
<path opacity="0.1" d="M305.081 148.162L302.048 149.425V143.311L304.993 140.995L305.081 148.162Z" fill="black"/>
<path d="M337.648 139.576C337.648 139.576 329.866 139.576 327.762 138.945C325.659 138.313 321.242 140.84 294.111 151.787C277.706 158.41 268.599 159.947 263.972 160.128C260.943 160.246 259.828 159.787 259.828 159.787C259.828 159.787 265.368 134.347 283.01 129.593C284.977 129.057 286.911 128.406 288.802 127.644L289.143 127.513C290.624 126.939 292.144 126.467 293.69 126.103C299.352 124.801 303.394 122.313 313.629 122.237C319.979 122.131 326.176 124.189 331.203 128.073C334.711 130.835 337.736 134.654 337.648 139.576Z" fill="#CC929B"/>
<path d="M289.904 127.366C268.073 136.789 264.741 154.402 263.972 160.128C260.943 160.246 259.828 159.787 259.828 159.787C259.828 159.787 265.368 134.347 283.01 129.593C284.977 129.057 286.911 128.406 288.802 127.644L289.143 127.513C289.395 127.475 289.648 127.425 289.904 127.366Z" fill="#F5C5CC"/>
<path opacity="0.1" d="M116.178 126.945L116.224 130.17C115.16 130.435 114.167 130.667 113.238 130.865V129.26L116.178 126.945Z" fill="black"/>
<path opacity="0.1" d="M123.96 125.681L123.989 127.9C122.955 128.243 121.963 128.556 121.015 128.839V127.997L123.96 125.681Z" fill="black"/>
<path opacity="0.1" d="M131.742 120.418L131.809 125.117C130.774 125.513 129.772 125.886 128.802 126.237V122.734L131.742 120.418Z" fill="black"/>
<path opacity="0.1" d="M139.313 117.26L139.381 122.136C138.413 122.51 137.412 122.904 136.377 123.319V119.576L139.313 117.26Z" fill="black"/>
<path opacity="0.1" d="M146.675 115.155L146.734 119.475C145.78 119.795 144.78 120.143 143.734 120.519V117.471L146.675 115.155Z" fill="black"/>
<path opacity="0.1" d="M157.401 109.892L157.494 116.452C156.564 116.646 155.559 116.873 154.465 117.155V112.208L157.401 109.892Z" fill="black"/>
<path opacity="0.1" d="M168.7 116.368C167.71 115.994 166.671 115.765 165.616 115.686V107.98L168.561 105.664L168.7 116.368Z" fill="black"/>
<path d="M179.275 116.418C179.275 116.418 171.493 116.418 169.39 115.787C167.286 115.155 162.87 111.787 135.738 122.734C119.333 129.357 110.226 130.894 105.599 131.075C102.57 131.193 101.455 130.734 101.455 130.734C101.455 130.734 105.632 108.629 124.052 104.898C125.08 104.698 126.096 104.437 127.094 104.119C128.225 103.749 130.009 103.218 132.406 102.666C138.59 101.243 148.841 99.6812 162.466 100.342C167.188 100.519 171.667 102.485 174.997 105.841C176.39 107.221 177.488 108.871 178.223 110.689C178.959 112.507 179.316 114.457 179.275 116.418V116.418Z" fill="#CC929B"/>
<path d="M132.406 102.666C110.575 112.09 106.369 125.349 105.599 131.075C102.57 131.193 101.455 130.734 101.455 130.734C101.455 130.734 105.632 108.629 124.052 104.898C125.08 104.698 126.096 104.437 127.094 104.119C128.225 103.736 130.009 103.218 132.406 102.666Z" fill="#F5C5CC"/>
<path d="M107.555 164.103L107.45 157.892L109.658 156.734L260.67 190.63L260.249 198.524L107.555 164.103Z" fill="#F5C5CC"/>
<path d="M109.658 156.734L260.67 190.63L260.459 193.577L107.778 157.72" fill="#CC929B"/>
<path d="M331.759 311.789C334.546 311.789 336.806 309.527 336.806 306.736C336.806 303.946 334.546 301.684 331.759 301.684C328.971 301.684 326.711 303.946 326.711 306.736C326.711 309.527 328.971 311.789 331.759 311.789Z" fill="#40414D"/>
<path d="M264.876 340.421C267.664 340.421 269.924 338.159 269.924 335.368C269.924 332.578 267.664 330.316 264.876 330.316C262.088 330.316 259.828 332.578 259.828 335.368C259.828 338.159 262.088 340.421 264.876 340.421Z" fill="#40414D"/>
<path d="M113.305 231.506C113.305 231.506 108.817 236.559 107.416 241.051C106.015 245.544 109.099 262.386 109.099 262.386C110.679 259.584 111.815 256.553 112.464 253.401C113.583 248.07 113.305 231.506 113.305 231.506Z" fill="#7A74DE"/>
<path d="M326.29 273.473C326.29 273.473 329.024 287.368 329.235 289.473C329.445 291.578 322.294 288.42 322.294 288.42L326.29 273.473Z" fill="#7A74DE"/>
<path d="M243.423 101.551H243.352C243.334 101.408 243.281 101.271 243.196 101.155C243.004 100.93 242.766 100.749 242.498 100.624L240.525 99.5254L242.229 100.144C242.149 100.007 242.06 99.8748 241.963 99.7485L242.161 99.858L242.027 99.6685L241.846 99.6054C240.937 98.5401 239.423 98.098 237.955 98.1191H237.98C238.169 98.0938 238.363 98.0769 238.552 98.0643C238.131 98.0379 237.709 98.0506 237.29 98.1022V98.1022C237.337 98.1226 237.387 98.1368 237.437 98.1443C237.303 98.1443 237.168 98.1696 237.017 98.1864C236.8 98.2451 236.573 98.2451 236.356 98.1864C236.223 98.1186 236.108 98.0204 236.019 97.8997C235.931 97.779 235.872 97.6393 235.847 97.4917C235.637 96.6496 235.969 95.7443 236.066 94.8643C236.113 94.4512 236.069 94.0328 235.936 93.639C235.936 93.5548 235.936 93.4706 235.936 93.3864C235.866 93.2001 235.754 93.0328 235.608 92.8982C235.461 92.7635 235.286 92.6654 235.094 92.6116C235.092 92.6439 235.092 92.6762 235.094 92.7085L235.023 92.679C235.023 93.4327 235.023 94.1906 235.023 94.9443C234.369 94.4286 233.791 93.825 233.302 93.1506C233.215 93.048 233.156 92.9248 233.13 92.7927C233.088 92.4095 233.576 92.1442 233.605 91.7569C233.604 91.6324 233.562 91.5119 233.486 91.4132C233.41 91.3146 233.304 91.2431 233.185 91.2095L233.311 91.1632C233.161 91.0937 232.996 91.0647 232.831 91.079C232.471 91.1612 232.117 91.2681 231.771 91.399L231.881 91.42C231.799 91.4469 231.716 91.4694 231.632 91.4874C230.577 91.7063 229.634 90.8642 228.873 90.1021L228.709 89.9379C228.347 86.7673 227.763 83.1336 227.763 83.1336C227.763 83.1336 227.237 78.982 226.501 76.7504C225.764 74.5188 224.704 70.5777 224.704 70.5777C224.704 70.5777 222.281 65.7902 221.76 65.5797C221.556 65.478 221.358 65.3656 221.167 65.2429C220.939 64.5268 220.798 63.7861 220.746 63.0365C220.616 58.8512 225.083 55.8785 225.756 51.7311C226.307 48.3627 224.187 44.9942 224.494 41.5794C224.637 40.0847 225.239 38.6783 225.563 37.2131C225.87 35.7916 225.911 34.3254 225.685 32.8888C225.577 32.1163 225.344 31.3667 224.995 30.6698C225.606 29.879 226.116 29.0148 226.513 28.0972C227.195 26.1519 226.459 23.9792 225.394 22.2024C221.974 16.5475 215.046 12.097 208.568 11.5201C205.956 11.2801 203.336 11.2338 200.719 11.1917C197.716 11.137 194.611 11.1033 191.835 12.2654C186.316 14.577 183.704 20.7539 180.352 25.7392C177.582 29.8623 174.036 33.405 169.911 36.1688C167.972 37.4657 165.705 38.8468 165.25 41.1499C165.207 41.3708 165.181 41.5946 165.171 41.8194C165.114 41.617 165.067 41.4118 165.032 41.2047C164.573 43.6089 166.268 45.8363 167.135 48.1311C167.588 49.3304 167.849 50.5936 167.909 51.8743C167.943 51.2684 167.943 50.6612 167.909 50.0553C168.75 54.4259 167.206 59.1165 166.252 63.5839C166.18 63.9123 166.125 64.2407 166.058 64.5692C165.274 64.7879 164.528 65.1244 163.845 65.5671C162.348 66.565 160.651 67.2258 158.873 67.5039C156.489 67.8788 154.343 69.1686 152.892 71.0998C152.623 71.4619 152.362 71.7103 152.135 71.7356C151.188 71.8451 145.913 88.3337 145.913 88.3337C145.913 88.3337 144.815 95.1253 144.815 96.7169C144.815 98.3085 142.918 109.803 142.918 109.803C142.918 109.803 142.283 111.909 142.498 112.78C142.62 113.264 142.329 114.886 142.056 116.191C141.941 116.143 141.84 116.068 141.762 115.972C141.446 115.336 135.641 115.972 137.437 120.229C137.884 121.374 138.578 122.406 139.469 123.252C138.67 125.256 137.976 127.122 138.068 127.357C138.068 127.357 138.068 128.877 138.203 130.755C136.97 131.597 135.961 132.355 135.961 132.355C135.873 134.679 137.421 135.05 138.876 134.966C139.25 136.313 139.797 137.383 140.601 137.673C143.238 138.633 144.925 138.208 145.77 138.936C146.616 139.665 151.125 141.08 151.125 141.08C153.04 141.368 154.97 141.552 156.905 141.631L157.679 142.019L157.586 141.597C157.834 141.551 157.721 141.256 157.41 140.755C157.271 140.111 157.094 139.269 156.896 138.309L158.053 137.888L158.369 138.355C157.948 140.562 157.679 142.031 157.679 142.031C157.679 142.031 155.576 149.585 156.518 150.755C157.46 151.926 156.518 153.417 156.518 153.417C156.518 153.417 156.308 155.328 156.838 155.328C157.368 155.328 157.994 157.774 157.468 157.884C156.943 157.993 154.524 160.01 155.365 160.436C156.207 160.861 155.365 161.817 155.365 162.777C155.365 163.476 156.652 164.511 157.351 165.021C157.225 165.476 157.094 165.96 156.972 166.436C156.61 167.842 156.329 169.198 156.417 169.69C156.627 170.861 155.891 174.158 156.101 175.223C156.312 176.288 157.052 178.625 156.522 179.585C155.992 180.545 156.627 183.733 156.627 183.733L157.578 192.773C157.578 192.773 156.947 195.329 157.578 195.964C158.209 196.6 158.739 204.053 159.37 204.903C160.001 205.754 160.956 210.221 160.211 211.712C159.467 213.203 161.162 216.285 161.162 216.285C161.162 216.285 161.057 219.902 161.057 220.857C161.057 221.813 162.003 223.304 162.003 223.304C162.003 223.304 162.954 228.411 162.844 229.687C162.735 230.963 163.475 232.773 163.475 232.773C163.475 232.773 164.11 236.495 164.005 237.346C163.9 238.196 164.847 239.367 164.847 239.367C164.847 239.367 166.008 242.133 165.688 243.304C165.368 244.474 166.424 245.645 166.424 245.645C166.424 245.645 166.319 248.197 166.319 248.517C166.319 248.837 168.536 251.388 168.536 251.388C168.536 251.388 167.585 253.304 168.115 254.049C168.645 254.795 168.536 257.451 169.377 258.306C170.218 259.161 170.008 262.664 171.06 263.304C172.111 263.944 173.062 264.475 173.272 265.856C173.482 267.237 174.328 269.262 175.279 269.582C175.459 269.706 175.616 269.862 175.741 270.041L175.321 271.831L174.021 277.241C174.021 277.241 172.759 285.111 172.86 286.281C172.961 287.452 171.598 288.622 171.598 288.622C171.598 288.622 170.437 295.431 170.227 296.281C170.016 297.132 170.332 298.728 170.332 298.728C170.332 298.728 169.596 302.77 170.122 302.985C170.647 303.199 172.864 305.431 172.864 305.431H173.037L172.809 306.231L169.171 319.157C169.171 319.157 165.806 324.795 173.604 327.667C173.865 328.172 174.105 328.185 173.823 328.088C174.08 328.307 179.292 332.72 179.712 334.787C180.133 336.855 183.721 339.04 184.987 339.255C186.253 339.469 194.691 346.274 197.749 339.575C200.808 332.876 192.369 328.509 192.369 328.509L185.946 324.37C185.946 324.37 182.678 319.583 182.16 318.732C181.643 317.882 180.684 313.73 181.319 313.094C181.643 312.766 182.657 309.852 183.574 307.082C183.658 306.816 183.746 306.555 183.83 306.294C185.622 306.715 187.65 305.873 187.65 305.873L192.348 298.454L193.19 297.153L193.341 297.456C193.341 297.456 197.245 297.776 199.142 298.096C199.745 298.121 200.347 298.045 200.925 297.873C200.997 298.029 201.068 298.189 201.136 298.349C201.596 299.335 201.987 300.352 202.305 301.393C202.621 302.774 202.94 307.667 202.94 307.667C202.94 307.667 200.837 314.69 200.303 315.966C199.769 317.242 200.829 327.882 211.273 323.625C211.273 323.625 212.535 321.604 213.696 321.604C214.857 321.604 217.705 318.732 216.641 315.646C215.576 312.559 211.172 303.094 214.218 298.096C216.674 294.071 216.477 288.673 213.175 286.163C213.036 286.058 212.889 285.965 212.754 285.873C212.79 285.337 212.79 284.8 212.754 284.264C212.014 274.054 207.286 273.519 207.286 273.519C207.286 273.519 204.543 272.883 204.227 271.835C204.042 271.22 201.666 268.045 199.697 265.464C199.764 265.355 199.827 265.245 199.891 265.136C199.891 265.098 199.933 265.06 199.949 265.022C200.042 264.849 200.13 264.673 200.214 264.487C201.746 261.043 201.35 256.032 201.27 255.136C201.165 253.965 201.27 252.475 201.27 250.773C201.27 249.072 202.953 246.517 202.747 245.561C202.541 244.605 204.753 240.668 204.753 239.708C204.753 238.748 206.305 233.001 206.305 233.001C206.305 233.001 209.364 226.403 209.999 224.487C210.604 222.651 221.407 189.185 222.281 186.474C222.298 186.414 222.317 186.355 222.34 186.297C222.34 186.297 225.79 175 223.48 167.581C223.331 167.091 223.149 166.612 222.938 166.145C223.644 165.804 224.132 165.556 224.132 165.556C224.132 165.556 222.761 161.513 223.392 160.023C224.023 158.532 223.602 155.661 223.602 155.661C223.602 155.661 221.078 154.17 220.969 153.534C220.86 152.899 219.808 152.044 220.128 151.193C220.447 150.343 222.231 150.772 222.025 148.852C221.819 146.932 219.602 144.915 219.812 143.745C220.023 142.574 220.864 140.448 219.812 139.172C218.761 137.896 218.336 135.875 218.231 134.279C218.201 133.858 218.294 132.616 218.441 130.978C219.566 131.679 220.727 132.318 221.92 132.894C221.92 132.894 226.454 133.534 226.669 133.109C227.074 132.567 227.534 132.068 228.04 131.618C233.736 130.237 231.203 119.829 231.203 119.829C231.203 119.829 231.119 119.067 230.985 117.812C231.128 117.776 231.262 117.711 231.38 117.622C231.864 117.269 231.982 116.595 232.276 116.065C232.611 115.563 233.004 115.102 233.445 114.692C234.489 113.555 235.107 112.102 235.704 110.675C236.083 109.766 236.47 108.856 236.853 107.942C237.235 107.029 237.694 105.938 238.535 105.277C239.503 104.498 240.815 104.346 242.048 104.233C241.998 103.288 241.645 102.384 241.042 101.656C241.413 101.542 241.804 101.514 242.187 101.572C242.57 101.63 242.935 101.774 243.255 101.993C243.272 101.964 243.287 101.935 243.301 101.904H243.326C243.397 101.8 243.431 101.676 243.423 101.551ZM153.35 130.684C153.376 130.473 153.413 130.263 153.46 130.052C153.666 129.858 153.914 129.631 154.179 129.42L155.651 129.564C155.29 129.858 154.974 130.128 154.717 130.347C154.263 130.115 153.767 130.343 153.35 130.684ZM156.295 127.766C156.503 127.751 156.709 127.707 156.905 127.635C157.187 127.635 157.477 127.635 157.771 127.635H158.192C157.49 128.128 156.779 128.675 156.148 129.185L156.295 127.799V127.766ZM158.722 106.292C158.722 106.292 158.625 109.315 158.84 112.355C158.512 112.587 158.171 112.839 157.834 113.104L158.579 106.094L158.722 106.292Z" fill="url(#paint0_linear)"/>
<path d="M213.662 321.158C212.506 321.158 211.244 323.158 211.244 323.158C200.833 327.368 199.781 316.842 200.307 315.578C200.833 314.315 202.936 307.368 202.936 307.368C202.936 307.368 202.621 302.526 202.305 301.157C201.986 300.128 201.597 299.122 201.14 298.147C200.433 296.534 199.676 294.947 199.676 294.947C199.676 294.947 204.198 283.789 210.192 284.841C211.261 285.02 212.27 285.453 213.137 286.104C216.43 288.589 216.628 293.932 214.176 297.894C211.126 302.841 215.543 312.21 216.594 315.263C217.646 318.315 214.819 321.158 213.662 321.158Z" fill="#FDC2CC"/>
<path d="M197.783 338.947C194.733 345.579 186.321 338.842 185.059 338.631C183.797 338.421 180.221 336.316 179.801 334.21C179.38 332.105 174.177 327.798 173.912 327.583C174.193 327.671 173.954 327.659 173.693 327.162C165.911 324.32 169.276 318.741 169.276 318.741L172.902 305.949L173.903 302.425L185.261 301.688C185.261 301.688 184.482 304.176 183.616 306.791C182.703 309.532 181.693 312.416 181.37 312.741C180.739 313.372 181.685 317.477 182.211 318.32C182.737 319.162 185.997 323.899 185.997 323.899L192.411 328.004C192.411 328.004 200.833 332.316 197.783 338.947Z" fill="#FDC2CC"/>
<path opacity="0.1" d="M185.269 301.684C185.269 301.684 184.491 304.172 183.624 306.787C183.031 306.616 182.504 306.268 182.114 305.789L172.965 305.999L172.91 305.945L173.912 302.42L185.269 301.684Z" fill="black"/>
<path d="M222.286 187.261C222.286 187.261 222.286 187.32 222.231 187.434C221.356 190.116 210.588 223.224 209.982 225.051C209.351 226.946 206.301 233.472 206.301 233.472C206.301 233.472 204.724 239.157 204.724 240.104C204.724 241.051 202.515 244.946 202.726 245.893C202.936 246.841 201.253 249.367 201.253 251.051C201.253 252.736 201.148 254.209 201.253 255.367C201.333 256.256 201.725 261.216 200.198 264.63C199.865 265.425 199.37 266.142 198.746 266.736C198.576 266.89 198.395 267.031 198.204 267.157C194.418 269.683 194.102 295.578 194.102 295.578L193.926 295.856L192.39 298.265L187.688 305.591C187.688 305.591 183.902 307.17 182.114 304.959L172.965 305.17C172.965 305.17 170.757 302.959 170.231 302.749C169.705 302.538 170.441 298.538 170.441 298.538C170.441 298.538 170.126 296.959 170.336 296.117C170.546 295.275 171.703 288.538 171.703 288.538C171.703 288.538 173.07 287.38 172.965 286.222C172.86 285.064 174.122 277.275 174.122 277.275L175.417 271.923L176.057 269.283L177.382 263.809L186.321 184.756L197.678 181.282L219.551 182.335L221.949 186.672L222.286 187.261Z" fill="#5F5D7E"/>
<path opacity="0.1" d="M191.473 226.104C191.368 228.104 190.842 231.156 191.053 232.946C191.263 234.735 191.999 241.472 191.684 242.735C191.368 243.999 192.84 245.472 193.366 246.104C193.892 246.736 193.577 248.63 193.682 250.104C193.787 251.578 195.154 252.946 195.154 252.946C195.154 252.946 193.577 256.315 194.733 256.841C195.89 257.367 198.309 262.209 198.309 262.209C198.309 262.209 199.121 263.233 200.198 264.622C199.786 265.636 199.094 266.513 198.204 267.148C194.418 269.675 194.102 295.57 194.102 295.57L193.926 295.848L191.579 291.149C191.579 291.149 177.592 269.991 176.646 269.675C176.418 269.585 176.215 269.441 176.057 269.254L177.382 263.78L186.321 184.726L197.678 181.253L219.551 182.305L208.034 183.463C208.034 183.463 202.915 187.139 202.881 187.253L193.682 191.148L191.999 216.411C191.999 216.411 191.579 224.104 191.473 226.104Z" fill="black"/>
<path opacity="0.1" d="M221.949 186.651C221.659 187.821 191.368 184.314 191.368 184.314L191.579 192.419L189.896 217.683C189.896 217.683 189.475 225.367 189.37 227.367C189.265 229.367 188.739 232.42 188.95 234.209C189.16 235.999 189.896 242.735 189.581 243.999C189.265 245.262 190.737 246.736 191.263 247.367C191.789 247.999 191.473 249.893 191.579 251.367C191.684 252.841 193.051 254.209 193.051 254.209C193.051 254.209 191.473 257.578 192.63 258.104C193.787 258.63 196.206 263.473 196.206 263.473C196.206 263.473 197.362 264.934 198.73 266.727C198.56 266.881 198.378 267.022 198.187 267.148C194.401 269.675 194.086 295.57 194.086 295.57L193.909 295.848L192.39 298.265L189.475 292.433C189.475 292.433 178.686 276.109 175.417 271.923L176.057 269.283L177.382 263.809L186.321 184.756L197.678 181.282L219.551 182.335L221.949 186.651Z" fill="black"/>
<path opacity="0.1" d="M213.149 286.088C212.729 293.625 204.795 297.313 201.14 298.147C200.433 296.534 199.676 294.947 199.676 294.947C199.676 294.947 204.198 283.789 210.192 284.841C211.263 285.013 212.278 285.441 213.149 286.088V286.088Z" fill="black"/>
<path d="M190.211 226.104C190.106 228.104 189.581 231.156 189.791 232.946C190.001 234.735 190.737 241.472 190.422 242.736C190.106 243.999 191.579 245.472 192.104 246.104C192.63 246.736 192.315 248.63 192.42 250.104C192.525 251.578 193.892 252.946 193.892 252.946C193.892 252.946 192.315 256.315 193.471 256.841C194.628 257.367 197.047 262.209 197.047 262.209C197.047 262.209 203.882 270.841 204.198 271.894C204.513 272.946 207.248 273.578 207.248 273.578C207.248 273.578 211.98 274.104 212.716 284.21C213.452 294.315 201.043 298.21 199.15 297.894C197.257 297.578 193.366 297.263 193.366 297.263L190.317 291.157C190.317 291.157 176.33 269.999 175.384 269.683C174.437 269.367 173.596 267.367 173.386 265.999C173.175 264.631 172.229 264.104 171.177 263.473C170.126 262.841 170.336 259.367 169.495 258.525C168.653 257.683 168.759 255.051 168.233 254.315C167.707 253.578 168.653 251.683 168.653 251.683C168.653 251.683 166.445 249.157 166.445 248.841C166.445 248.525 166.55 245.999 166.55 245.999C166.55 245.999 165.499 244.841 165.814 243.683C166.13 242.525 164.973 239.788 164.973 239.788C164.973 239.788 164.026 238.63 164.132 237.788C164.237 236.946 163.606 233.262 163.606 233.262C163.606 233.262 162.87 231.472 162.975 230.209C163.08 228.946 162.133 223.893 162.133 223.893C162.133 223.893 161.187 222.42 161.187 221.472C161.187 220.525 161.292 216.946 161.292 216.946C161.292 216.946 159.61 213.893 160.346 212.419C161.082 210.946 160.135 206.525 159.504 205.682C158.873 204.84 158.348 197.472 157.717 196.84C157.086 196.209 157.717 193.682 157.717 193.682L156.77 184.735C156.77 184.735 156.139 181.577 156.665 180.63C157.191 179.682 156.455 177.366 156.244 176.314C156.034 175.261 156.77 171.998 156.56 170.84C156.472 170.352 156.753 169.013 157.111 167.619C157.607 165.699 158.242 163.682 158.242 163.682C158.242 163.682 212.295 158.629 220.077 163.892C221.76 165.021 222.799 166.735 223.442 168.739C225.743 176.082 222.303 187.265 222.303 187.265L192.437 191.16L190.754 216.424C190.754 216.424 190.317 224.104 190.211 226.104Z" fill="#5F5D7E"/>
<path opacity="0.1" d="M181.588 263.578C181.588 263.578 190.948 260.736 193.156 262.63C195.364 264.525 181.588 263.578 181.588 263.578Z" fill="black"/>
<path opacity="0.1" d="M184.953 275.578C184.953 275.578 187.793 272.525 191.999 273.473C194.467 274.048 197.056 273.789 199.361 272.736L184.953 275.578Z" fill="black"/>
<path opacity="0.1" d="M194.839 279.052C194.839 279.052 202.515 277.999 202.831 278.946C203.146 279.894 194.839 279.052 194.839 279.052Z" fill="black"/>
<path opacity="0.1" d="M192.63 285.262C192.63 285.262 201.148 282.736 201.569 283.789C201.99 284.841 192.21 285.157 192.21 285.157L192.63 285.262Z" fill="black"/>
<path opacity="0.1" d="M202.2 228.525C202.2 228.525 194.208 235.578 195.364 236.314C196.521 237.051 202.2 228.525 202.2 228.525Z" fill="black"/>
<path opacity="0.1" d="M195.68 245.999C195.68 245.999 201.253 245.999 200.202 247.262C199.15 248.525 195.68 245.999 195.68 245.999Z" fill="black"/>
<path opacity="0.1" d="M199.045 250.946C199.045 250.946 196.837 252.841 197.362 253.262C197.888 253.683 199.045 250.946 199.045 250.946Z" fill="black"/>
<path opacity="0.1" d="M174.753 296.105C174.753 296.105 181.693 298.42 181.799 299.894C181.904 301.368 174.753 296.105 174.753 296.105Z" fill="black"/>
<path d="M208.404 75.9967L206.196 89.1547C206.196 89.1547 187.057 99.2601 186.741 99.2601C186.426 99.2601 172.755 96.9443 172.229 96.9443C171.703 96.9443 162.764 69.8914 169.074 68.2071C170.782 67.7524 173.259 66.6576 175.964 65.2976C183.258 61.6471 192.21 56.1017 192.21 56.1017C192.21 56.1017 205.565 54.628 202.305 63.8913C201.043 67.525 201.691 70.1693 202.965 72.043C204.968 74.9483 208.404 75.9967 208.404 75.9967Z" fill="#FDC2CC"/>
<path opacity="0.1" d="M208.404 75.9967L206.196 89.1547C206.196 89.1547 187.057 99.2601 186.741 99.2601C186.426 99.2601 172.755 96.9443 172.229 96.9443C171.703 96.9443 162.764 69.8913 169.074 68.2071C170.782 67.7524 173.259 66.6576 175.964 65.2976C177.685 65.4113 178.854 65.5755 178.854 65.5755C178.854 65.5755 183.061 81.681 183.376 86.6284C183.692 91.5758 194.628 92.1021 195.364 91.8916C196.101 91.6811 199.15 79.5757 199.15 79.5757C199.15 79.5757 198.835 75.3651 199.781 75.3651C200.572 75.3651 202.398 72.8387 202.965 72.0429C204.968 74.9482 208.404 75.9967 208.404 75.9967Z" fill="black"/>
<path opacity="0.1" d="M223.426 168.739C221.962 169.455 218.462 171.088 217.537 170.844C216.38 170.528 213.541 170.528 213.541 170.528C213.541 170.528 211.858 172.423 210.07 172.002C208.282 171.581 201.237 171.897 201.237 171.897C201.237 171.897 188.617 172.423 186.199 171.581C183.78 170.739 175.157 170.002 175.157 170.002C175.157 170.002 163.379 168.634 161.38 167.791C160.817 167.545 160.198 167.455 159.588 167.529C158.978 167.603 158.398 167.839 157.91 168.213C157.91 168.213 157.544 167.973 157.094 167.623C157.59 165.703 158.226 163.686 158.226 163.686C158.226 163.686 212.279 158.633 220.061 163.897C221.743 165.021 222.799 166.735 223.426 168.739Z" fill="black"/>
<path d="M178.854 66.4176C178.854 66.4176 168.233 64.9439 164.026 67.7861C162.532 68.7743 160.841 69.4278 159.071 69.7019C156.698 70.0701 154.559 71.3455 153.106 73.2598C152.837 73.6219 152.576 73.8661 152.353 73.8914C151.407 73.9967 146.149 90.3127 146.149 90.3127L158.873 108.102C158.873 108.102 158.558 117.997 160.346 119.892C162.133 121.787 157.822 143.471 157.822 143.471C157.822 143.471 155.719 150.945 156.665 152.103C157.612 153.261 156.665 154.734 156.665 154.734C156.665 154.734 156.455 156.629 156.981 156.629C157.506 156.629 158.137 159.05 157.612 159.156C157.086 159.261 154.667 161.261 155.508 161.682C156.35 162.103 155.508 163.05 155.508 163.998C155.508 164.945 157.927 166.524 157.927 166.524C158.415 166.15 158.995 165.914 159.605 165.84C160.215 165.766 160.834 165.857 161.397 166.103C163.395 166.945 175.173 168.314 175.173 168.314C175.173 168.314 183.797 169.05 186.215 169.893C188.634 170.735 201.253 170.208 201.253 170.208C201.253 170.208 208.299 169.893 210.087 170.314C211.875 170.735 213.557 168.84 213.557 168.84C213.557 168.84 216.397 168.84 217.553 169.156C218.71 169.471 224.073 166.735 224.073 166.735C224.073 166.735 222.706 162.735 223.337 161.261C223.968 159.787 223.548 156.945 223.548 156.945C223.548 156.945 221.024 155.471 220.919 154.84C220.813 154.208 219.762 153.366 220.077 152.524C220.393 151.682 222.181 152.103 221.97 150.208C221.76 148.313 219.552 146.313 219.762 145.155C219.972 143.997 220.813 141.892 219.762 140.629C218.71 139.366 218.29 137.366 218.184 135.787C218.079 134.208 219.762 119.892 219.762 119.892L215.871 91.0495L227.754 85.1547C227.754 85.1547 227.228 81.0494 226.492 78.8388C225.756 76.6283 224.704 72.7335 224.704 72.7335C224.704 72.7335 222.286 67.9966 221.76 67.7861C221.234 67.5755 215.661 63.8913 214.399 64.4176C213.137 64.9439 203.146 72.6282 203.146 72.6282C203.146 72.6282 200.728 76.2072 199.781 76.2072C198.835 76.2072 199.15 80.4178 199.15 80.4178C199.15 80.4178 196.101 92.5232 195.364 92.7337C194.628 92.9443 183.692 92.4179 183.376 87.4705C183.061 82.5231 178.854 66.4176 178.854 66.4176Z" fill="#D39999"/>
<path d="M162.365 128.654C160.906 128.975 159.42 129.159 157.927 129.202C155.769 129.261 153.872 128.987 153.405 128.208C152.143 126.103 152.143 122.103 152.143 122.103C152.143 122.103 157.847 123.42 161.784 124.86L162.436 125.105C163.963 125.698 165.124 126.305 165.381 126.835C165.747 127.547 164.338 128.212 162.365 128.654Z" fill="#FDC2CC"/>
<path opacity="0.1" d="M203.672 70.1019C214.301 70.1019 222.917 61.4774 222.917 50.8385C222.917 40.1996 214.301 31.5751 203.672 31.5751C193.044 31.5751 184.428 40.1996 184.428 50.8385C184.428 61.4774 193.044 70.1019 203.672 70.1019Z" fill="black"/>
<path d="M203.672 69.2598C214.301 69.2598 222.917 60.6353 222.917 49.9964C222.917 39.3575 214.301 30.733 203.672 30.733C193.044 30.733 184.428 39.3575 184.428 49.9964C184.428 60.6353 193.044 69.2598 203.672 69.2598Z" fill="#FDC2CC"/>
<path opacity="0.1" d="M161.082 153.998C161.082 153.998 166.55 153.998 168.653 154.524C170.757 155.05 175.173 155.156 175.173 155.156C175.173 155.156 162.975 154.734 161.082 153.998Z" fill="black"/>
<path opacity="0.1" d="M161.292 157.366C161.292 157.366 168.338 157.892 168.443 158.945C168.548 159.998 161.292 157.366 161.292 157.366Z" fill="black"/>
<path opacity="0.1" d="M214.924 144.419C214.924 144.419 219.236 145.998 219.131 146.524C219.026 147.05 215.345 145.682 214.924 144.419Z" fill="black"/>
<path d="M148.883 88.4179L146.149 90.3127C146.149 90.3127 144.992 97.0496 144.992 98.6285C144.992 100.208 143.099 111.576 143.099 111.576C143.099 111.576 142.468 113.681 142.679 114.523C142.889 115.366 141.837 119.681 141.837 119.681C141.837 119.681 138.052 128.418 138.262 128.945C138.472 129.471 156.244 131.155 156.244 131.155L158.768 107.576L148.883 88.4179Z" fill="#D39999"/>
<path d="M140.891 126.103L138.262 128.945C138.262 128.945 138.157 138.208 140.786 139.155C143.415 140.103 145.097 139.682 145.939 140.419C146.78 141.155 151.302 142.524 151.302 142.524C151.302 142.524 156.244 143.261 157.717 143.05C159.189 142.84 149.093 134.734 155.719 127.892L140.891 126.103Z" fill="#D39999"/>
<path d="M224.073 81.0494L227.754 85.1547C227.754 85.1547 229.331 94.9443 228.911 96.3127C228.49 97.6812 231.119 121.471 231.119 121.471C231.119 121.471 233.643 131.787 227.964 133.155C227.46 133.599 227.002 134.093 226.597 134.629C226.387 135.05 221.865 134.418 221.865 134.418L214.924 88.839L224.073 81.0494Z" fill="#D39999"/>
<path opacity="0.1" d="M174.017 118.734C174.017 118.734 187.793 110.523 190.317 110.102C192.84 109.681 208.51 102.208 208.51 102.208C208.51 102.208 216.291 106.208 217.028 109.26C217.764 112.313 213.768 124.524 213.768 124.524C213.768 124.524 200.938 133.471 200.202 135.366C199.466 137.261 188.424 142.84 188.424 143.787C188.424 144.734 170.967 155.05 163.29 145.998C155.613 136.945 155.719 134.313 155.719 134.313L175.173 129.787L177.066 121.366L174.017 118.734Z" fill="black"/>
<path d="M174.017 117.892C174.017 117.892 187.793 109.681 190.317 109.26C192.84 108.839 208.51 101.365 208.51 101.365C208.51 101.365 216.291 105.365 217.028 108.418C217.764 111.471 213.768 123.681 213.768 123.681C213.768 123.681 200.938 132.629 200.202 134.524C199.466 136.418 188.424 141.997 188.424 142.945C188.424 143.892 170.967 154.208 163.29 145.155C155.613 136.103 155.719 133.471 155.719 133.471L175.173 128.945L177.066 120.524L174.017 117.892Z" fill="#C4C8E2"/>
<path d="M152.774 121.576L152.143 126.839L147.142 126.473L142.258 126.111C142.258 126.111 139.419 126.111 137.631 121.9C135.843 117.69 141.627 117.058 141.942 117.69C142.182 118.166 148.252 120.149 151.197 121.088L152.774 121.576Z" fill="#FDC2CC"/>
<path opacity="0.1" d="M152.774 121.576L152.143 126.839L147.142 126.473C147.958 125.26 149.666 123.041 151.201 121.088L152.774 121.576Z" fill="black"/>
<path opacity="0.1" d="M152.143 122.103C152.143 122.103 157.847 123.42 161.784 124.86C161.524 125.282 159.782 128.01 157.927 129.202C155.769 129.261 153.872 128.987 153.405 128.208C152.143 126.103 152.143 122.103 152.143 122.103Z" fill="black"/>
<path opacity="0.1" d="M162.365 128.654L162.272 127.926C162.272 127.926 162.23 127.77 162.192 127.534C162.117 127.054 162.062 126.246 162.415 125.753C162.621 125.463 162.575 125.256 162.441 125.109C163.967 125.703 165.128 126.309 165.385 126.839C165.747 127.547 164.338 128.212 162.365 128.654Z" fill="black"/>
<path d="M180.221 125.21C180.221 125.21 174.509 130.932 174.155 132.157C173.802 133.383 163.008 133.421 163.008 133.421L162.272 127.526C162.272 127.526 162.23 127.37 162.192 127.134C162.117 126.654 162.062 125.846 162.415 125.353C162.941 124.616 161.818 124.406 161.818 124.406C161.818 124.406 158.907 129.21 156.455 129.353C156.455 129.353 153.056 131.808 153.09 132.301C153.09 132.301 151.441 133.808 151.407 135.631C151.373 137.454 149.27 138.195 147.726 137.669C146.183 137.143 142.363 136.018 141.135 136.195C139.907 136.372 136.02 137.526 136.159 133.913C136.159 133.913 141.206 130.124 142.468 130.229C143.73 130.334 146.675 128.86 147.095 127.703C147.516 126.545 154.667 117.702 154.667 117.702C154.667 117.702 159.189 113.42 161.01 112.999C161.01 112.999 164.657 110.157 170.159 114.473C170.159 114.473 177.769 119.172 178.013 119.804C178.206 120.3 180.415 122.423 180.6 124.014C180.642 124.229 180.63 124.452 180.564 124.661C180.498 124.87 180.38 125.059 180.221 125.21V125.21Z" fill="#FDC2CC"/>
<path opacity="0.1" d="M162.377 116.839C162.377 116.839 162.937 120.069 162.659 121.227C162.382 122.385 161.818 124.385 161.818 124.385C161.818 124.385 165.217 119.05 162.377 116.839Z" fill="black"/>
<path opacity="0.1" d="M162.621 124.7C162.621 124.7 164.375 122.768 164.762 123.26C165.149 123.753 162.621 124.7 162.621 124.7Z" fill="black"/>
<path d="M234.434 104.999C234.434 107.678 233.562 110.284 231.95 112.422C230.337 114.56 228.073 116.114 225.499 116.848C224.423 117.157 223.309 117.316 222.189 117.319H222.126C220.51 117.319 218.91 117 217.418 116.38C215.925 115.761 214.569 114.853 213.427 113.709C212.285 112.565 211.379 111.207 210.761 109.713C210.143 108.218 209.826 106.617 209.826 104.999C209.824 104.276 209.889 103.554 210.02 102.843C210.499 100.15 211.863 97.694 213.894 95.8637C215.925 94.0334 218.508 92.9334 221.234 92.738C221.528 92.7127 221.827 92.7001 222.126 92.7001C225.387 92.6989 228.515 93.9937 230.823 96.2999C233.131 98.606 234.429 101.735 234.434 104.999V104.999Z" fill="#F8BDC5"/>
<path d="M240.924 103.488C241.525 104.207 241.877 105.103 241.926 106.039C240.697 106.153 239.402 106.3 238.426 107.071C237.585 107.728 237.164 108.755 236.743 109.711C236.359 110.612 235.978 111.513 235.599 112.414C235.002 113.825 234.388 115.265 233.349 116.389C232.908 116.794 232.516 117.249 232.179 117.745C231.889 118.271 231.759 118.936 231.288 119.29C231.05 119.435 230.781 119.519 230.504 119.534C230.226 119.55 229.949 119.496 229.697 119.378C229.18 119.185 228.717 118.86 228.2 118.654C227.868 118.526 227.522 118.436 227.169 118.385V118.385C225.63 118.157 223.935 118.49 222.626 117.66C222.475 117.56 222.334 117.444 222.206 117.315C221.695 116.814 221.325 116.186 221.133 115.496C221.037 115.216 221.002 114.919 221.032 114.625C221.092 114.355 221.211 114.103 221.38 113.884C221.548 113.666 221.763 113.487 222.008 113.361C222.08 113.319 222.151 113.277 222.227 113.239C223.489 112.578 225.243 112.422 225.903 111.134C226.534 109.913 225.752 108.427 224.793 107.441C224.338 106.978 223.8 106.452 223.863 105.803C223.922 105.231 224.431 104.831 224.856 104.448C226.058 103.359 226.868 101.904 227.161 100.309C227.273 99.8155 227.264 99.3028 227.136 98.8138C227.005 98.4632 226.825 98.1329 226.602 97.8327L225.239 95.8117C224.818 95.0982 224.243 94.4882 223.556 94.0264C222.988 93.6853 222.336 93.5674 221.764 93.2306C221.546 93.1113 221.364 92.9372 221.234 92.7253C221.162 92.6068 221.138 92.4652 221.167 92.3295C221.238 91.9927 221.587 91.8285 221.937 91.7316C222.84 91.4692 223.785 91.3792 224.721 91.4663C225.018 91.5296 225.325 91.5296 225.621 91.4663C225.769 91.427 225.897 91.336 225.982 91.21C226.068 91.084 226.106 90.9314 226.088 90.78C227.123 90.5105 228.103 91.319 228.86 92.0769C229.618 92.8348 230.543 93.6643 231.611 93.4495C231.994 93.3737 232.348 93.1548 232.735 93.1127C233.122 93.0706 233.601 93.3232 233.576 93.7148C233.551 94.1064 233.063 94.359 233.105 94.738C233.13 94.8691 233.189 94.9911 233.277 95.0917C233.763 95.7607 234.339 96.3587 234.989 96.8685C234.989 96.1232 234.989 95.3738 234.989 94.6285C235.83 94.839 236.138 95.9169 236.041 96.7885C235.944 97.6601 235.62 98.5401 235.822 99.3907C235.847 99.5363 235.906 99.6742 235.994 99.7932C236.081 99.9123 236.195 100.009 236.327 100.077C236.543 100.136 236.771 100.136 236.987 100.077C238.918 99.8033 241.173 100.317 242.132 102.014L240.449 101.403L242.405 102.473C242.673 102.596 242.911 102.776 243.103 102.999C243.197 103.113 243.252 103.253 243.261 103.399C243.27 103.546 243.232 103.692 243.154 103.816C242.83 103.598 242.462 103.456 242.076 103.399C241.691 103.342 241.297 103.372 240.924 103.488V103.488Z" fill="#585268"/>
<g opacity="0.1">
<path opacity="0.1" d="M237.219 99.9801C237.435 100.039 237.663 100.039 237.879 99.9801C238.068 99.9549 238.258 99.938 238.451 99.9254C238.03 99.8987 237.608 99.9114 237.189 99.9633L237.219 99.9801Z" fill="black"/>
<path opacity="0.1" d="M241.324 101.319L242.048 101.719L241.913 101.53L241.324 101.319Z" fill="black"/>
<path opacity="0.1" d="M235.898 96.7717C235.898 96.2832 235.898 95.7906 235.898 95.298C235.825 95.1146 235.711 94.9502 235.566 94.8174C235.42 94.6847 235.246 94.5869 235.056 94.5316V96.0138C235.321 96.2837 235.602 96.5369 235.898 96.7717V96.7717Z" fill="black"/>
<path opacity="0.1" d="M242.165 103.34C242.537 103.404 242.89 103.548 243.2 103.761C243.274 103.663 243.311 103.543 243.305 103.42C242.936 103.312 242.547 103.284 242.165 103.34Z" fill="black"/>
<path opacity="0.1" d="M230.627 119.315C230.11 119.121 229.647 118.797 229.13 118.591C228.797 118.463 228.451 118.372 228.099 118.321C226.559 118.094 224.864 118.427 223.556 117.597C223.405 117.497 223.264 117.381 223.135 117.252C222.624 116.75 222.254 116.123 222.063 115.433C221.967 115.153 221.932 114.856 221.962 114.561C222.022 114.292 222.141 114.039 222.309 113.821C222.478 113.603 222.692 113.424 222.938 113.298C223.009 113.256 223.081 113.214 223.156 113.176C224.439 112.515 226.172 112.359 226.833 111.071C227.464 109.85 226.681 108.363 225.722 107.378C225.268 106.915 224.73 106.389 224.793 105.74C224.852 105.168 225.361 104.768 225.785 104.384C226.988 103.296 227.798 101.841 228.091 100.245C228.202 99.7523 228.194 99.2396 228.065 98.7506C227.934 98.4 227.755 98.0697 227.531 97.7696L226.168 95.7485C225.748 95.0351 225.173 94.425 224.486 93.9632C223.918 93.6221 223.266 93.5043 222.694 93.1674C222.476 93.0482 222.293 92.874 222.164 92.6621C222.092 92.5437 222.067 92.402 222.096 92.2663C222.168 91.9295 222.538 91.7653 222.866 91.6684C223.415 91.5144 223.979 91.4212 224.549 91.3905C223.698 91.3403 222.845 91.4343 222.025 91.6684C221.697 91.7653 221.327 91.9295 221.255 92.2663C221.226 92.402 221.25 92.5437 221.322 92.6621C221.452 92.874 221.635 93.0482 221.852 93.1674C222.425 93.5043 223.077 93.6221 223.644 93.9632C224.331 94.425 224.906 95.0351 225.327 95.7485L226.69 97.7696C226.913 98.0697 227.093 98.4 227.224 98.7506C227.352 99.2396 227.361 99.7523 227.249 100.245C226.957 101.841 226.146 103.296 224.944 104.384C224.524 104.768 224.01 105.168 223.951 105.74C223.888 106.389 224.427 106.915 224.881 107.378C225.84 108.363 226.623 109.85 225.992 111.071C225.331 112.355 223.598 112.511 222.315 113.176C222.239 113.214 222.168 113.256 222.096 113.298C221.851 113.424 221.637 113.603 221.468 113.821C221.299 114.039 221.181 114.292 221.121 114.561C221.091 114.856 221.125 115.153 221.221 115.433C221.413 116.123 221.783 116.75 222.294 117.252C222.422 117.381 222.563 117.497 222.715 117.597C224.023 118.439 225.718 118.094 227.258 118.321C227.61 118.372 227.956 118.463 228.288 118.591C228.806 118.797 229.268 119.121 229.786 119.315C230.162 119.469 230.576 119.505 230.972 119.416C230.855 119.391 230.739 119.357 230.627 119.315V119.315Z" fill="black"/>
<path opacity="0.1" d="M232.52 93.3527C232.779 93.2864 233.033 93.2034 233.281 93.1043C233.133 93.0314 232.967 93.0008 232.802 93.0158C232.445 93.1006 232.094 93.2075 231.75 93.3358C232.002 93.3984 232.265 93.4042 232.52 93.3527V93.3527Z" fill="black"/>
<path opacity="0.1" d="M225.63 91.3906C225.928 91.4469 226.235 91.4397 226.53 91.3695C226.676 91.3302 226.804 91.2399 226.889 91.1148C226.975 90.9897 227.013 90.8381 226.997 90.6874C226.721 90.6161 226.432 90.6161 226.156 90.6874C226.173 90.8388 226.135 90.9914 226.05 91.1174C225.964 91.2434 225.836 91.3343 225.689 91.3737C225.66 91.3827 225.63 91.3898 225.6 91.3948L225.63 91.3906Z" fill="black"/>
</g>
<path d="M211.033 98.2622C209.464 99.437 206.962 99.9465 204.661 100.115C202.862 100.258 201.054 100.258 199.255 100.115L195.205 98.5906C195.205 98.5906 195.533 97.938 196.088 97.0748C197.194 95.3569 199.205 92.8011 201.304 92.9064C204.459 93.0622 207.773 93.218 208.089 93.218C208.404 93.218 214.554 95.6306 211.033 98.2622Z" fill="#FDC2CC"/>
<path d="M200.787 13.9791C197.792 13.9244 194.7 13.8907 191.953 15.0444C186.43 17.3307 183.826 23.4403 180.486 28.3667C177.716 32.4491 174.18 35.9541 170.075 38.6868C168.14 39.9499 165.894 41.3394 165.427 43.6132C164.931 46.0174 166.647 48.2448 167.53 50.5227C169.402 55.3691 167.53 60.7376 166.424 65.8155C165.906 68.2544 165.573 70.7288 165.427 73.2177C165.307 74.3702 165.382 75.5347 165.65 76.662C166.491 79.6346 169.671 81.782 169.697 84.8726C169.697 86.9779 168.216 88.9653 168.649 91.0116C169.209 93.6264 172.38 94.5695 175.009 95.0201C175.639 95.1932 176.306 95.1726 176.923 94.9611C177.344 94.759 177.689 94.3716 178.118 94.1569C179.578 93.4327 181.197 94.9611 182.829 94.9316C184.878 94.8938 186.03 92.4727 186.081 90.4221C186.131 88.3716 185.584 86.2115 186.321 84.3168C187.301 81.7904 190.106 80.5904 192.475 79.2641C195.095 77.7946 197.59 75.6725 198.364 72.7714C198.847 70.9777 198.629 69.0787 198.435 67.2345C198.141 64.405 197.909 61.5628 197.749 58.7249C197.329 51.4827 203.34 45.449 210.562 46.0132H210.697C212.8 46.1858 215.282 46.3879 216.767 44.8553C217.356 44.2447 217.73 43.4026 218.449 42.9816C219.854 42.1816 221.785 43.3226 223.198 42.5352C224.305 41.9163 224.54 40.43 224.368 39.1668C224.195 37.9036 223.754 36.6404 223.989 35.4025C224.326 33.6467 225.92 32.392 226.513 30.7035C227.195 28.7793 226.458 26.6277 225.398 24.8845C222.004 19.2802 215.093 14.8928 208.615 14.3033C206.011 14.0507 203.399 14.0212 200.787 13.9791Z" fill="#865A61"/>
<path opacity="0.1" d="M196.088 97.0622C198.587 97.5759 201.628 98.717 204.661 100.111C202.862 100.253 201.054 100.253 199.255 100.111L195.205 98.5864C195.205 98.5864 195.533 97.9254 196.088 97.0622Z" fill="black"/>
<path opacity="0.1" d="M227.174 118.385C225.634 118.157 223.939 118.49 222.631 117.66C222.479 117.56 222.338 117.444 222.21 117.315H222.147C220.53 117.317 218.928 117 217.433 116.382C215.938 115.764 214.58 114.858 213.436 113.714C212.292 112.57 211.384 111.211 210.764 109.716C210.145 108.221 209.826 106.618 209.826 104.999C209.824 104.276 209.889 103.554 210.02 102.843C214.331 105.256 217.827 107.736 218.5 108.949C219.495 110.545 220.666 112.023 221.991 113.357C223.165 114.62 224.423 115.833 225.499 116.848C226.139 117.441 226.715 117.968 227.174 118.385Z" fill="black"/>
<path d="M227.859 119.787C227.859 119.787 220.182 113.155 218.079 109.366C215.976 105.576 186.426 89.4705 190.211 101.681C193.997 113.892 207.037 115.05 207.037 115.05C207.037 115.05 211.244 119.787 211.664 122.103C212.085 124.418 213.557 127.787 213.557 127.787L220.603 130.945L223.863 130.208C223.863 130.208 231.54 125.997 227.859 119.787Z" fill="#FDC2CC"/>
<path opacity="0.1" d="M213.137 127.366C213.137 127.366 225.546 134.418 226.808 117.892L229.962 118.945L226.808 130.103L221.444 133.997C221.444 133.997 213.978 130.524 213.137 127.366Z" fill="black"/>
<path d="M213.557 127.787C213.557 127.787 225.966 134.839 227.228 118.313L230.383 119.366L227.228 130.524L221.865 134.418C221.865 134.418 214.399 130.945 213.557 127.787Z" fill="#D39999"/>
<path d="M224.515 44.0384C224.658 42.5605 225.26 41.1668 225.575 39.7142C225.886 38.3089 225.929 36.8574 225.701 35.4362C225.574 34.4097 225.192 33.4313 224.591 32.5899C224.17 32.0636 222.908 30.9056 222.172 31.4278C221.751 31.7267 221.638 33.4573 221.47 33.9541C220.879 35.6229 220.088 37.2136 219.114 38.691C221.194 41.5643 222.441 44.9571 222.717 48.4948C222.992 52.0326 222.286 55.5778 220.676 58.7392C219.066 61.9006 216.615 64.5553 213.593 66.4103C210.57 68.2653 207.095 69.2485 203.55 69.2514C203.092 69.2514 202.637 69.2303 202.187 69.1966C201.767 69.9293 201.384 70.6703 200.997 71.4114C200.54 72.1639 200.231 72.9972 200.088 73.8662C200.053 74.6968 200.18 75.5264 200.463 76.3083C201.246 78.8805 202.327 81.3521 203.685 83.6726C204.158 84.3929 204.546 85.1658 204.842 85.9758C205.081 86.7547 205.123 87.5884 205.435 88.3379C206.133 90.0221 207.959 90.8643 209.641 91.5674C210.646 91.9885 211.698 92.4095 212.783 92.3211C212.885 92.3288 212.987 92.3151 213.083 92.2809C213.179 92.2467 213.267 92.1928 213.341 92.1226C213.415 92.0525 213.474 91.9676 213.513 91.8734C213.553 91.7793 213.572 91.6779 213.57 91.5759C213.628 91.1346 213.583 90.6857 213.437 90.2653C213.29 89.8449 213.048 89.4646 212.729 89.1548C214.156 89.6025 215.653 89.781 217.145 89.6811C217.279 89.709 217.418 89.6979 217.545 89.649C217.672 89.6001 217.783 89.5156 217.864 89.4055C217.945 89.2954 217.992 89.1644 218 89.0281C218.009 88.8918 217.978 88.756 217.911 88.6369C217.524 87.0487 216.933 85.5174 216.153 84.081C215.387 82.6663 214.411 81.0199 215.109 79.5757C215.509 78.7336 216.35 78.262 217.116 77.7609C219.703 76.0767 221.995 73.3314 221.794 70.2451C221.684 68.5608 220.834 66.9566 220.784 65.2597C220.654 61.1207 225.104 58.1607 225.777 54.0722C226.311 50.729 224.191 47.4195 224.515 44.0384Z" fill="#865A61"/>
<g opacity="0.1">
<path opacity="0.1" d="M169.469 83.1884C169.444 80.0978 166.268 77.9504 165.423 74.9777C165.293 74.5089 165.212 74.0276 165.183 73.5419C165.089 74.588 165.17 75.6425 165.423 76.662C166.197 79.3778 168.906 81.4073 169.39 84.0978C169.444 83.7977 169.47 83.4933 169.469 83.1884V83.1884Z" fill="black"/>
<path opacity="0.1" d="M182.602 93.2474C180.97 93.2769 179.35 91.7484 177.891 92.4727C177.47 92.6874 177.134 93.0748 176.696 93.2769C176.079 93.4884 175.412 93.5089 174.782 93.3358C172.162 92.8853 168.998 91.9463 168.43 89.3526C168.323 89.9004 168.323 90.4638 168.43 91.0116C168.99 93.6264 172.162 94.5695 174.791 95.0201C175.42 95.1932 176.087 95.1726 176.705 94.9611C177.125 94.759 177.47 94.3716 177.899 94.1569C179.359 93.4327 180.978 94.9611 182.61 94.9316C184.659 94.8938 185.812 92.4727 185.862 90.4221C185.862 90.0011 185.862 89.58 185.833 89.1589C185.618 91.1042 184.508 93.2095 182.602 93.2474Z" fill="black"/>
<path opacity="0.1" d="M198.145 71.083C197.362 73.984 194.868 76.1062 192.256 77.5757C189.888 78.9062 187.082 80.102 186.102 82.6284C185.741 83.7194 185.618 84.8751 185.74 86.0179C185.777 85.4348 185.898 84.8602 186.102 84.3126C187.082 81.7862 189.888 80.5862 192.256 79.2599C194.876 77.7904 197.371 75.6683 198.145 72.7672C198.412 71.6656 198.501 70.5285 198.41 69.3987C198.377 69.9675 198.288 70.5316 198.145 71.083V71.083Z" fill="black"/>
<path opacity="0.1" d="M221.175 41.1247C220.161 41.0489 219.106 40.8131 218.231 41.3015C217.495 41.7226 217.12 42.5647 216.548 43.1752C215.063 44.7079 212.602 44.5058 210.478 44.3332H210.344C203.121 43.7689 197.118 49.8069 197.531 57.0449C197.531 57.0996 197.531 57.1586 197.531 57.2133C197.631 55.6345 198.043 54.0911 198.742 52.6723C199.441 51.2534 200.413 49.9871 201.604 48.9463C202.794 47.9056 204.178 47.1109 205.677 46.6082C207.176 46.1055 208.759 45.9047 210.335 46.0174H210.47C212.573 46.19 215.055 46.3921 216.54 44.8595C217.129 44.2489 217.503 43.4068 218.222 42.9858C219.064 42.4973 220.136 42.7331 221.167 42.8089C221.976 44.8217 222.438 46.9573 222.534 49.1248C222.534 48.8511 222.555 48.5774 222.555 48.2827C222.555 45.8305 222.087 43.4008 221.175 41.1247V41.1247Z" fill="black"/>
<path opacity="0.1" d="M168.09 54.2364C168.216 52.4057 167.954 50.5689 167.32 48.8469C166.655 47.1248 165.515 45.4363 165.217 43.6805C164.758 46.0595 166.453 48.2616 167.32 50.5311C167.77 51.7181 168.029 52.9685 168.09 54.2364V54.2364Z" fill="black"/>
<path opacity="0.1" d="M225.6 36.4173C225.562 36.9599 225.483 37.499 225.365 38.0299C225.049 39.4826 224.448 40.8763 224.305 42.3542C224.254 42.8807 224.254 43.4109 224.305 43.9374C224.465 42.4974 225.041 41.1331 225.352 39.7268C225.596 38.6416 225.679 37.5267 225.6 36.4173V36.4173Z" fill="black"/>
<path opacity="0.1" d="M225.55 52.3964C224.877 56.4849 220.426 59.4449 220.557 63.5839C220.564 63.808 220.583 64.0316 220.616 64.2534C221.146 60.6281 224.936 57.8281 225.55 54.0807C225.654 53.402 225.668 52.7125 225.592 52.0301C225.579 52.1522 225.579 52.2743 225.55 52.3964Z" fill="black"/>
<path opacity="0.1" d="M226.315 29.0109C225.918 29.9131 225.409 30.7618 224.801 31.5372C224.976 31.8763 225.117 32.2317 225.222 32.5983C225.665 32.0075 226.029 31.3604 226.303 30.6741C226.566 29.8882 226.633 29.0495 226.496 28.2319C226.46 28.4965 226.399 28.7572 226.315 29.0109Z" fill="black"/>
<path opacity="0.1" d="M221.516 69.7945C221.142 72.3714 219.127 74.6156 216.889 76.0851C216.123 76.5862 215.282 77.0746 214.882 77.8999C214.606 78.5209 214.565 79.2217 214.769 79.8704C214.799 79.772 214.837 79.6762 214.882 79.5841C215.282 78.742 216.123 78.2704 216.889 77.7693C219.476 76.0851 221.768 73.3398 221.566 70.2535C221.558 70.0977 221.537 69.9461 221.516 69.7945Z" fill="black"/>
<path opacity="0.1" d="M213.103 90.46C212.947 90.5793 212.757 90.6444 212.56 90.6453C211.475 90.7379 210.424 90.3126 209.418 89.8916C207.736 89.1926 205.902 88.3421 205.212 86.6621C204.9 85.9126 204.858 85.0789 204.619 84.2999C204.323 83.49 203.935 82.7171 203.462 81.9968C202.104 79.6763 201.023 77.2047 200.24 74.6325C200.118 74.2438 200.016 73.8488 199.937 73.4493C199.907 73.5882 199.882 73.7314 199.865 73.8703C199.83 74.701 199.957 75.5306 200.24 76.3125C201.023 78.8847 202.104 81.3563 203.462 83.6768C203.935 84.3971 204.323 85.17 204.619 85.98C204.858 86.7589 204.9 87.5926 205.212 88.3421C205.91 90.0263 207.736 90.8684 209.418 91.5716C210.424 91.9927 211.475 92.4137 212.56 92.3253C212.662 92.3329 212.764 92.3192 212.86 92.2851C212.956 92.2509 213.044 92.197 213.118 92.1268C213.192 92.0566 213.251 91.9718 213.29 91.8776C213.33 91.7834 213.349 91.6821 213.347 91.58C213.402 91.1549 213.359 90.7226 213.221 90.3169C213.191 90.3714 213.151 90.4199 213.103 90.46V90.46Z" fill="black"/>
<path opacity="0.1" d="M217.469 87.8747C217.297 87.957 217.109 88.0015 216.918 88.0053C215.426 88.1052 213.928 87.9267 212.501 87.4789C213.023 87.9838 213.331 88.6693 213.364 89.3947C214.527 89.6693 215.725 89.7686 216.918 89.6895C217.052 89.7174 217.19 89.7063 217.318 89.6574C217.445 89.6085 217.556 89.524 217.637 89.4139C217.717 89.3038 217.765 89.1728 217.773 89.0365C217.781 88.9002 217.75 88.7644 217.684 88.6453C217.621 88.3842 217.545 88.1274 217.469 87.8747Z" fill="black"/>
</g>
<path opacity="0.1" d="M158.768 97.1548C158.768 97.1548 158.348 105.787 159.61 106.418C160.871 107.05 158.768 97.1548 158.768 97.1548Z" fill="black"/>
<path opacity="0.1" d="M182.64 119.892C183.061 119.892 184.743 120.734 184.953 121.681C185.164 122.629 182.64 119.892 182.64 119.892Z" fill="black"/>
<path opacity="0.1" d="M181.588 121.26C182.009 121.26 183.691 122.102 183.902 123.05C184.112 123.997 181.588 121.26 181.588 121.26Z" fill="black"/>
<path opacity="0.1" d="M185.479 125.05C185.9 125.05 187.582 125.892 187.793 126.839C188.003 127.787 185.479 125.05 185.479 125.05Z" fill="black"/>
<path opacity="0.1" d="M180.221 125.21C180.221 125.21 174.509 130.932 174.155 132.157C173.802 133.383 163.008 133.421 163.008 133.421L162.272 127.526C162.272 127.526 162.23 127.37 162.192 127.134C165.175 126.368 174.845 122.793 180.6 124.06C180.634 124.268 180.618 124.482 180.552 124.682C180.486 124.882 180.373 125.063 180.221 125.21V125.21Z" fill="black"/>
<path d="M154.208 132.452C154.208 132.452 159.715 127.576 161.397 127.682C163.08 127.787 183.586 119.05 184.953 128.839C186.321 138.629 158.768 139.155 158.768 139.155L154.562 140.734C154.562 140.734 151.054 133.084 154.208 132.452Z" fill="#FDC2CC"/>
<path d="M152.597 133.155C152.597 133.155 155.121 129.648 155.891 133.926C156.661 138.204 157.822 143.471 157.822 143.471L152.177 140.663L152.597 133.155Z" fill="#D39999"/>
<path opacity="0.1" d="M386.312 282.681C396.717 282.681 405.153 281.386 405.153 279.789C405.153 278.191 396.717 276.896 386.312 276.896C375.907 276.896 367.471 278.191 367.471 279.789C367.471 281.386 375.907 282.681 386.312 282.681Z" fill="#7A74DE"/>
<path opacity="0.1" d="M333.13 336.539C349.392 336.539 362.575 334.514 362.575 332.017C362.575 329.519 349.392 327.494 333.13 327.494C316.868 327.494 303.685 329.519 303.685 332.017C303.685 334.514 316.868 336.539 333.13 336.539Z" fill="#7A74DE"/>
<path opacity="0.1" d="M413.052 354C434.563 354 452 351.321 452 348.017C452 344.712 434.563 342.034 413.052 342.034C391.542 342.034 374.105 344.712 374.105 348.017C374.105 351.321 391.542 354 413.052 354Z" fill="#7A74DE"/>
<path d="M371.455 252.037C371.455 252.037 368.792 264.458 380.646 265.932L381.382 264.551C381.382 264.551 372.191 255.902 371.455 252.037Z" fill="#7A74DE"/>
<path d="M385.151 264.454L382.396 265.039L382.118 265.102C382.118 265.102 374.765 259.123 374.858 245.78C375.843 247.746 377.02 249.611 378.37 251.346C381.285 255.203 384.583 260.369 385.151 264.454Z" fill="#7A74DE"/>
<path d="M386.085 265.734C385.868 265.876 385.622 265.967 385.365 266C385.108 266.034 384.846 266.009 384.6 265.927C377.521 264.273 379.914 241.182 379.914 241.182C380.305 241.367 380.755 244.302 382.362 248.096C385.218 254.757 388.369 264.062 386.085 265.734Z" fill="#7A74DE"/>
<path d="M401.783 252.037C401.783 252.037 402.246 264.458 390.388 265.932L389.652 264.551C389.652 264.551 401.052 255.902 401.783 252.037Z" fill="#7A74DE"/>
<path d="M398.385 245.78C398.473 259.123 388.92 265.102 388.92 265.102L388.642 265.039L385.887 264.454C386.43 260.357 389.753 255.19 392.664 251.346C394.313 249.243 396.237 247.37 398.385 245.78V245.78Z" fill="#7A74DE"/>
<path d="M388.6 264.525C388.174 265.044 387.634 265.457 387.023 265.734V265.734C386.838 265.819 386.645 265.884 386.447 265.927C384.701 266.348 384.095 265.085 384.196 262.942C384.36 259.153 386.75 252.542 388.895 247.607C390.439 244.053 392.962 241.359 393.337 241.182C393.328 241.182 393.223 259.161 388.6 264.525Z" fill="#7A74DE"/>
<path d="M386.619 233.085C386.619 233.085 378.715 261.144 385.517 265.376C392.319 269.607 388.369 235.569 386.619 233.085Z" fill="#7A74DE"/>
<path opacity="0.1" d="M371.455 252.037C371.455 252.037 368.792 264.458 380.646 265.932L381.382 264.551C381.382 264.551 372.191 255.902 371.455 252.037Z" fill="black"/>
<path opacity="0.1" d="M385.151 264.454L382.396 265.039L382.118 265.102C382.118 265.102 374.765 259.123 374.858 245.78C375.843 247.746 377.02 249.611 378.37 251.346C381.285 255.203 384.583 260.369 385.151 264.454Z" fill="black"/>
<path opacity="0.1" d="M386.085 265.734C385.868 265.876 385.622 265.967 385.365 266C385.108 266.034 384.846 266.009 384.6 265.927C377.521 264.273 379.914 241.182 379.914 241.182C380.305 241.367 380.755 244.302 382.362 248.096C385.218 254.757 388.369 264.062 386.085 265.734Z" fill="black"/>
<path opacity="0.1" d="M401.783 252.037C401.783 252.037 402.246 264.458 390.388 265.932L389.652 264.551C389.652 264.551 401.052 255.902 401.783 252.037Z" fill="black"/>
<path opacity="0.1" d="M398.385 245.78C398.473 259.123 388.92 265.102 388.92 265.102L388.642 265.039L385.887 264.454C386.43 260.357 389.753 255.19 392.664 251.346C394.313 249.243 396.237 247.37 398.385 245.78V245.78Z" fill="black"/>
<path opacity="0.1" d="M388.6 264.525C388.174 265.044 387.634 265.457 387.023 265.734V265.734C386.838 265.819 386.645 265.884 386.447 265.927C384.701 266.348 384.095 265.085 384.196 262.942C384.36 259.153 386.75 252.542 388.895 247.607C390.439 244.053 392.962 241.359 393.337 241.182C393.328 241.182 393.223 259.161 388.6 264.525Z" fill="black"/>
<path opacity="0.1" d="M386.619 233.085C386.619 233.085 378.715 261.144 385.517 265.376C392.319 269.607 388.369 235.569 386.619 233.085Z" fill="black"/>
<path d="M371.455 252.037C371.455 252.037 369.894 264.458 381.748 265.932L382.484 264.551C382.484 264.551 372.191 255.902 371.455 252.037Z" fill="#7A74DE"/>
<path d="M386.266 264.454L383.511 265.039L383.233 265.102C383.233 265.102 374.778 259.123 374.871 245.78C374.871 245.78 377.037 248.104 379.498 251.346C382.392 255.203 385.702 260.369 386.266 264.454Z" fill="#7A74DE"/>
<path opacity="0.1" d="M386.266 264.454L383.511 265.039C380.898 262.744 379.859 256.748 379.485 251.346C382.392 255.203 385.702 260.369 386.266 264.454Z" fill="black"/>
<path d="M387.187 265.734C386.97 265.876 386.724 265.967 386.467 266C386.21 266.034 385.948 266.009 385.702 265.927C378.623 264.273 379.914 241.182 379.914 241.182C380.305 241.367 381.836 244.302 383.464 248.096C386.32 254.757 389.458 264.062 387.187 265.734Z" fill="#7A74DE"/>
<path d="M401.783 252.037C401.783 252.037 403.348 264.458 391.49 265.932L390.758 264.551C390.758 264.551 401.051 255.902 401.783 252.037Z" fill="#7A74DE"/>
<path d="M398.385 245.78C398.473 259.123 390.022 265.102 390.022 265.102L389.745 265.039L386.989 264.454C387.536 260.357 390.855 255.19 393.766 251.346C396.218 248.104 398.385 245.78 398.385 245.78Z" fill="#7A74DE"/>
<path opacity="0.1" d="M393.766 251.346C393.413 256.399 392.504 261.932 390.253 264.525C390.099 264.711 389.929 264.883 389.745 265.039L386.989 264.454C387.528 260.369 390.855 255.203 393.766 251.346Z" fill="black"/>
<path d="M389.702 264.525C389.277 265.045 388.737 265.458 388.125 265.734V265.734C387.939 265.818 387.744 265.883 387.544 265.927C385.803 266.348 385.193 265.085 385.294 262.942C385.458 259.153 387.847 252.542 389.993 247.607C391.536 244.053 392.937 241.359 393.333 241.182C393.328 241.182 394.329 259.161 389.702 264.525Z" fill="#7A74DE"/>
<path opacity="0.1" d="M387.187 265.734C386.786 265.733 386.395 265.608 386.068 265.376C382.737 263.3 382.669 255.506 383.464 248.112C386.32 254.757 389.458 264.062 387.187 265.734Z" fill="black"/>
<path opacity="0.1" d="M389.702 264.525C389.32 265.367 388.802 265.788 388.125 265.734C387.785 265.69 387.459 265.567 387.174 265.376C386.31 264.78 385.653 263.929 385.294 262.942C385.458 259.153 387.847 252.542 389.993 247.607C390.754 254.475 391.006 261.717 389.702 264.525Z" fill="black"/>
<path d="M399.672 263.999H371.367V268.69H375.682L375.792 269.241L377.521 278.349H393.976L395.705 269.241L395.81 268.69H399.672V263.999Z" fill="#4B4770"/>
<path opacity="0.1" d="M399.672 263.999H371.367V268.69H375.682L375.792 269.241L377.521 278.349H393.976L395.705 269.241L395.81 268.69H399.672V263.999Z" fill="black"/>
<path d="M397.282 266.757L396.811 269.241L395.078 278.349H378.623L376.894 269.241L376.418 266.757H397.282Z" fill="#4B4770"/>
<path opacity="0.1" d="M397.282 266.757L396.811 269.241H376.894L376.418 266.757H397.282Z" fill="black"/>
<path d="M400.774 263.999H372.469V268.69H400.774V263.999Z" fill="#4B4770"/>
</g>
<defs>
<linearGradient id="paint0_linear" x1="189.686" y1="342.526" x2="189.686" y2="11.1538" gradientUnits="userSpaceOnUse">
<stop stop-color="#808080" stop-opacity="0.25"/>
<stop offset="0.54" stop-color="#808080" stop-opacity="0.12"/>
<stop offset="1" stop-color="#808080" stop-opacity="0.1"/>
</linearGradient>
<clipPath id="clip0">
<rect width="452" height="354" fill="white"/>
</clipPath>
</defs>
</svg>
